<svg width="36" height="22" viewBox="0 0 36 22" fill="none" xmlns="http://www.w3.org/2000/svg">
<path d="M25.5445 0.324209L35.6695 10.2521C35.8875 10.4659 36 10.7485 36 10.9691C36 11.1898 35.8902 11.5337 35.6704 11.7489L25.5454 21.6768C25.1059 22.1077 24.3937 22.1077 23.9549 21.6768C23.5162 21.2459 23.5155 20.5475 23.9549 20.1173L32.1604 12.0716H1.125C0.503156 12.0716 0 11.5782 0 11.0305C0 10.4208 0.503156 9.92741 1.125 9.92741H32.1609L23.9555 1.88165C23.516 1.45075 23.516 0.752351 23.9555 0.322141C24.3949 -0.108069 25.1086 -0.107379 25.5445 0.324209Z" fill="black"/>
</svg>
